# xmcd
#
# Track frame offsets: 
#        150
#        22255
#        41673
#        64588
#        85263
#        111898
#        129220
#        145164
#        164604
#        182865
#        200982
#        224711
#        243463
#        255422
#
# Disc length: 4037 seconds
#
# Revision: 1
# Processed by: cddbd v1.5.2PL0 Copyright (c) Steve Scherf et al.
# Submitted via: ExactAudioCopy v1.0b1
#
DISCID=d70fc30e
DTITLE=Jose James - Blackmagic
DYEAR=2009
DGENRE=Jazz
TTITLE0=Code
TTITLE1=Touch
TTITLE2=Lay You Down
TTITLE3=Promise In Love
TTITLE4=Warrior
TTITLE5=Made For Love
TTITLE6=Save Your Love For Me
TTITLE7=The Greater Good
TTITLE8=Blackmagic
TTITLE9=Detroit Loveletter
TTITLE10=Love Conversation feat. Jordana de Lovely
TTITLE11=Beauty
TTITLE12=No Tellin'
TTITLE13=The Light (Bonus Track)
EXTD=YEAR: 2009
EXTT0=
EXTT1=
EXTT2=
EXTT3=
EXTT4=
EXTT5=
EXTT6=
EXTT7=
EXTT8=
EXTT9=
EXTT10=
EXTT11=
EXTT12=
EXTT13=
PLAYORDER=
